<?xml version="1.0" encoding="utf-8"?>
<!-- Generator: Adobe Illustrator 25.2.1, SVG Export Plug-In . SVG Version: 6.00 Build 0)  -->
<svg version="1.1" id="Layer_1" xmlns="http://www.w3.org/2000/svg" xmlns:xlink="http://www.w3.org/1999/xlink" x="0px" y="0px"
	 viewBox="0 0 24 24" style="enable-background:new 0 0 24 24;" xml:space="preserve">
<style type="text/css">
	.st0{fill:none;stroke:#BDBDBD;stroke-width:2;stroke-linecap:round;stroke-linejoin:round;}
	.st1{fill-rule:evenodd;clip-rule:evenodd;fill:#BDBDBD;}
</style>
<path class="st0" d="M8.5,11C9.9,11,11,9.9,11,8.5S9.9,6,8.5,6S6,7.1,6,8.5S7.1,11,8.5,11z"/>
<path class="st1" d="M3.9,3.9C4.4,3.3,5.2,3,6,3h12c0.8,0,1.6,0.3,2.1,0.9C20.7,4.4,21,5.2,21,6v9l-2.8-3c-0.3-0.3-0.6-0.6-1-0.7
	C16.8,11.1,16.4,11,16,11c-0.4,0-0.8,0.1-1.2,0.3c-0.4,0.2-0.7,0.4-1,0.7l-8.2,9c-0.6-0.1-1.2-0.4-1.7-0.8C3.3,19.6,3,18.8,3,18V6
	C3,5.2,3.3,4.4,3.9,3.9z M8.3,21H18c0,0,0,0,0,0c0.8,0,1.6-0.3,2.1-0.9c0.6-0.6,0.9-1.3,0.9-2.1v0c0,0,0,0,0-0.1c0,0,0,0,0-0.1
	c0,0-0.1-0.1-0.2-0.2l0,0l-4-4.4c-0.1-0.1-0.2-0.2-0.3-0.2C16.3,13,16.1,13,16,13c-0.1,0-0.3,0-0.4,0.1c-0.1,0.1-0.2,0.1-0.3,0.2
	L8.3,21z M6,23L6,23c-1.3,0-2.6-0.5-3.5-1.5C1.5,20.6,1,19.3,1,18V6c0-1.3,0.5-2.6,1.5-3.5C3.4,1.5,4.7,1,6,1h12
	c1.3,0,2.6,0.5,3.5,1.5C22.5,3.4,23,4.7,23,6v12c0,0,0,0,0,0v0.1c0,1.3-0.5,2.5-1.4,3.4c-0.9,0.9-2.2,1.4-3.4,1.4H18c0,0,0,0,0,0H6z
	"/>
</svg>
